# xmcd CD database file
#
# Track frame offsets:
#	150
#	34111
#	79606
#	123839
#	157125
#	185677
#
# Disc length: 2936 seconds
#
# Revision: 2
# Processed by: cddbd v1.5.2PL0 Copyright (c) Steve Scherf et al.
# Submitted via: CDex 1.51
#
DISCID=460b7606
DTITLE=Various Artist - Acupuncture for Mind
DYEAR=2001
DGENRE=New Age
TTITLE0=Spirit Of Heaven and Earth
TTITLE1=Calming Your Mind
TTITLE2=Moving Of Chi
TTITLE3=Inspirations Between Us
TTITLE4=Breaths Of Cells
TTITLE5=Heart Of Balance
EXTD=YEAR: 2001
EXTT0=
EXTT1=
EXTT2=
EXTT3=
EXTT4=
EXTT5=
PLAYORDER=
